<?xml version="1.0" standalone="no"?>
<!DOCTYPE svg PUBLIC "-//W3C//DTD SVG 20010904//EN"
 "http://www.w3.org/TR/2001/REC-SVG-20010904/DTD/svg10.dtd">
<svg version="1.0" xmlns="http://www.w3.org/2000/svg"
 width="959.000000pt" height="960.000000pt" viewBox="0 0 959.000000 960.000000"
 preserveAspectRatio="xMidYMid meet">
<metadata>
Created by potrace 1.15, written by Peter Selinger 2001-2017
</metadata>
<g transform="translate(0.000000,960.000000) scale(0.100000,-0.100000)"
fill="#000000" stroke="none">
<path d="M4435 9013 c-609 -39 -1139 -175 -1661 -427 -1223 -591 -2115 -1734
-2379 -3051 -217 -1077 -30 -2178 527 -3108 436 -729 1087 -1323 1852 -1693
1282 -619 2782 -572 4031 126 156 87 429 272 570 384 679 545 1175 1255 1439
2065 375 1148 256 2405 -328 3456 -583 1051 -1594 1831 -2746 2120 -420 106
-909 154 -1305 128z m637 -138 c1909 -183 3465 -1636 3777 -3525 304 -1845
-639 -3669 -2324 -4495 -1179 -577 -2571 -573 -3739 12 -191 96 -271 142 -461
268 -965 641 -1623 1639 -1829 2775 -49 270 -60 412 -60 750 -1 413 28 658
120 1027 196 789 650 1551 1244 2088 234 211 533 430 775 567 760 430 1631
616 2497 533z"/>
<path d="M4435 8754 c-22 -2 -96 -9 -164 -15 -386 -33 -860 -153 -1211 -306
-497 -217 -921 -503 -1295 -878 -903 -902 -1328 -2154 -1165 -3430 148 -1155
799 -2208 1770 -2861 180 -121 294 -187 491 -284 536 -263 1083 -398 1689
-416 1112 -34 2178 381 2974 1156 705 687 1122 1551 1228 2540 17 159 17 657
0 805 -57 502 -179 937 -383 1363 -37 78 -91 184 -120 235 -86 153 -270 424
-385 567 -137 172 -450 485 -621 621 -623 497 -1330 791 -2123 884 -127 15
-594 28 -685 19z m-221 -352 c2 -4 2 -13 -2 -19 -13 -20 -274 -133 -309 -133
-10 0 -38 -11 -62 -25 -23 -14 -49 -25 -56 -25 -7 0 -43 -14 -81 -30 -37 -17
-69 -29 -71 -26 -7 7 -112 -42 -159 -75 -62 -42 -112 -98 -130 -145 -14 -38
-14 -44 0 -72 21 -41 50 -55 97 -49 42 5 46 3 27 -17 -54 -54 -138 -64 -187
-24 -36 30 -35 82 1 153 25 49 96 135 111 135 4 0 31 22 60 50 34 32 78 61
127 81 41 18 82 38 90 45 14 12 139 58 225 83 17 5 55 19 85 30 30 12 62 21
70 21 8 0 42 11 75 25 64 26 81 30 89 17z m1016 -218 c0 -19 -4 -43 -9 -52 -4
-9 -11 -36 -15 -59 l-6 -43 67 0 c76 0 97 -9 91 -36 -3 -17 -14 -19 -89 -22
l-86 -3 -21 -72 c-25 -85 -52 -209 -52 -240 0 -14 10 -26 25 -33 31 -15 128
-10 133 6 5 14 72 85 72 75 0 -3 12 6 28 20 15 14 38 28 52 31 14 3 38 11 54
17 52 19 178 29 206 16 8 -4 23 -10 32 -13 9 -3 24 -19 33 -36 15 -28 14 -32
-2 -55 -44 -59 -261 -133 -311 -106 -30 16 -50 5 -44 -24 8 -42 34 -56 115
-59 79 -4 145 8 235 42 50 20 64 15 44 -14 -9 -13 -93 -53 -142 -66 -49 -13
-228 -19 -235 -7 -4 5 -22 9 -41 9 -19 0 -34 4 -34 9 0 5 -11 12 -25 15 -14 4
-31 18 -37 31 -7 15 -20 26 -35 27 -66 5 -83 4 -83 -2 0 -10 -72 -42 -105 -46
-16 -2 -32 2 -37 9 -5 8 -59 12 -195 13 -121 1 -196 5 -210 12 -12 7 -32 12
-44 12 -26 0 -89 40 -89 56 0 10 73 44 94 44 5 0 14 -7 20 -16 7 -9 32 -20 56
-24 40 -7 49 -5 91 23 40 26 48 36 52 71 3 22 1 48 -4 59 -6 10 -12 28 -14 39
-6 30 -13 34 -35 20 -11 -7 -30 -18 -42 -24 -13 -7 -32 -21 -44 -31 -11 -10
-52 -34 -89 -53 -38 -20 -77 -46 -87 -59 -30 -39 -125 -78 -190 -79 -46 -1
-61 3 -82 23 -22 21 -27 22 -40 8 -9 -8 -47 -27 -85 -42 -64 -25 -74 -27 -113
-16 -24 7 -50 18 -58 24 -24 19 -41 55 -30 62 6 3 10 17 10 31 0 56 158 179
275 215 39 11 75 26 82 31 7 5 41 12 75 15 35 2 72 9 83 14 26 12 79 -3 83
-23 2 -12 -17 -17 -106 -26 -93 -10 -118 -16 -182 -49 -104 -53 -150 -98 -157
-152 -7 -52 2 -60 61 -51 53 8 96 41 125 96 35 64 69 91 139 109 35 9 66 14
70 11 3 -4 -8 -21 -24 -39 -30 -32 -42 -54 -61 -114 -21 -62 40 -70 95 -14 23
24 51 42 153 96 11 5 19 13 19 17 0 5 4 8 10 8 10 0 39 21 77 58 13 12 28 22
33 22 6 0 10 13 10 29 0 26 4 29 48 38 60 12 94 0 86 -31 -10 -40 -8 -61 10
-101 57 -127 57 -135 1 -191 -26 -25 -45 -47 -43 -49 2 -2 31 8 64 22 l62 26
6 51 c4 28 18 108 31 179 14 70 25 128 25 130 0 4 -136 10 -272 11 -76 1 -138
4 -138 8 0 4 -6 5 -13 2 -16 -6 -48 48 -38 64 9 16 59 14 276 -10 94 -10 177
-18 186 -18 15 0 23 20 44 98 7 26 38 48 93 68 56 20 62 18 62 -22z m-1340 -9
c0 -2 -11 -30 -25 -61 -14 -31 -27 -67 -30 -80 -3 -13 -7 -34 -10 -47 -3 -13
-7 -43 -9 -68 -3 -24 -5 -44 -6 -44 -2 0 -4 -14 -14 -95 -21 -164 -110 -299
-232 -353 -16 -6 -40 -20 -54 -29 -14 -9 -37 -20 -52 -23 -45 -11 -33 14 17
36 25 11 67 42 94 68 41 40 51 57 59 102 6 30 10 61 10 69 0 57 12 213 16 218
3 3 6 16 6 29 0 37 73 174 115 216 41 41 115 81 115 62z m981 -895 c453 -45
866 -191 1233 -434 160 -107 263 -192 412 -340 148 -149 233 -252 340 -412
371 -560 518 -1246 408 -1914 -41 -252 -120 -494 -239 -735 -391 -797 -1126
-1334 -2015 -1472 -146 -23 -596 -25 -735 -5 -303 46 -574 129 -830 256 -281
140 -493 292 -715 515 -416 417 -674 942 -757 1541 -23 169 -23 508 1 680 81
598 345 1133 765 1550 237 235 523 431 811 555 141 61 340 132 430 154 76 18
319 55 425 64 92 8 370 6 466 -3z m-954 -5513 c5 -11 6 -43 2 -71 -4 -28 -10
-71 -13 -96 -3 -25 -10 -62 -16 -83 -6 -22 -10 -41 -8 -43 4 -3 49 26 83 53
57 46 157 112 183 121 27 9 38 9 57 -4 32 -21 39 -44 18 -60 -10 -7 -21 -14
-25 -14 -12 0 -108 -106 -120 -132 -7 -16 -16 -28 -20 -28 -5 0 -8 -6 -8 -13
0 -7 -8 -22 -17 -33 -16 -17 -67 -154 -60 -160 1 -2 17 4 35 13 20 10 32 23
32 35 0 11 23 47 52 80 41 47 68 67 137 100 77 38 94 42 183 46 l98 5 0 -30 0
-30 -77 -5 c-93 -6 -159 -34 -218 -93 -32 -32 -41 -47 -40 -75 0 -32 3 -35 31
-38 23 -2 38 4 60 25 35 35 59 64 74 93 13 25 67 50 106 50 l27 0 -21 -23
c-12 -13 -27 -38 -34 -57 -6 -19 -17 -41 -24 -48 -17 -17 -7 -42 17 -42 11 0
42 12 70 28 50 26 75 59 94 122 8 25 32 81 85 195 15 33 40 88 55 122 30 65
41 73 108 73 30 0 37 -4 37 -19 0 -11 -6 -26 -13 -33 -27 -27 -177 -311 -177
-333 0 -21 6 -19 56 19 25 19 66 43 91 52 l46 18 23 -28 c43 -49 27 -83 -56
-119 -69 -30 -73 -35 -53 -68 13 -22 25 -29 48 -29 44 0 56 12 95 87 42 81 98
124 190 143 67 14 112 3 131 -31 14 -27 -1 -49 -63 -96 -78 -60 -115 -76 -154
-68 -31 5 -34 4 -34 -18 0 -73 96 -76 210 -7 78 47 92 63 111 127 10 36 10 44
-5 58 -21 21 -12 61 22 98 27 28 47 33 72 17 12 -7 12 -12 0 -34 -7 -14 -11
-27 -9 -29 7 -5 111 -35 147 -42 36 -7 38 -10 17 -32 -9 -8 -19 -28 -22 -44
-3 -15 -11 -30 -19 -33 -9 -3 -14 -21 -14 -46 0 -39 2 -41 26 -38 15 2 31 10
35 18 47 87 92 193 95 225 12 107 16 115 64 115 22 0 31 -11 59 -65 19 -36 40
-65 47 -65 7 0 23 -21 35 -47 20 -45 21 -49 5 -76 -20 -35 -20 -47 -1 -47 8 0
15 4 15 9 0 5 6 16 13 23 7 7 25 30 41 51 29 38 53 50 42 20 -15 -38 -64 -108
-101 -145 -69 -68 -114 -84 -222 -79 -28 1 -33 5 -33 25 0 30 8 36 62 42 64 7
87 22 99 67 14 52 6 78 -36 120 l-36 36 -15 -23 c-8 -13 -23 -48 -34 -77 -44
-125 -70 -159 -147 -190 -15 -6 -37 -16 -48 -21 -41 -18 -83 13 -76 55 1 4 4
24 7 44 3 20 10 47 15 60 5 13 5 23 2 23 -4 0 -2 5 5 12 18 18 15 27 -15 39
-24 9 -30 7 -45 -11 -10 -12 -18 -30 -18 -40 0 -10 -7 -23 -15 -30 -8 -7 -15
-20 -16 -29 -1 -35 -139 -114 -229 -132 -69 -13 -131 1 -165 37 l-23 25 -40
-20 c-97 -49 -158 -33 -169 45 -5 41 -5 41 50 72 55 31 76 57 58 75 -27 27
-98 -23 -157 -110 -75 -112 -133 -147 -126 -75 4 38 -2 39 -49 8 -44 -30 -110
-49 -144 -40 -14 3 -25 9 -25 13 0 3 -4 12 -9 19 -6 11 -16 8 -44 -11 -49 -33
-96 -41 -147 -23 -38 13 -46 13 -87 -5 -101 -43 -150 -17 -139 74 6 43 61 168
79 175 4 2 7 10 7 18 0 8 7 17 15 20 15 6 21 34 7 34 -7 0 -41 -21 -70 -45 -7
-5 -27 -25 -44 -42 -17 -18 -35 -33 -40 -33 -5 0 -19 -11 -31 -24 -29 -32
-124 -95 -154 -102 -15 -4 -30 -1 -39 7 -11 12 -6 22 39 69 73 76 94 108 117
181 22 72 24 89 10 89 -5 0 -10 -5 -10 -11 0 -6 -18 -29 -40 -50 -22 -22 -40
-43 -40 -49 0 -5 -4 -10 -10 -10 -5 0 -22 -13 -38 -28 -15 -15 -50 -42 -78
-60 -27 -17 -58 -39 -69 -47 -10 -8 -26 -15 -35 -15 -9 0 -20 -4 -25 -9 -6 -4
-29 -13 -52 -18 -32 -8 -48 -7 -72 5 -43 20 -39 39 11 53 24 6 64 22 90 35 27
13 48 22 48 19 0 -8 94 57 98 68 2 4 9 7 17 7 13 0 127 112 134 132 2 7 15 24
28 38 13 14 31 50 40 80 26 90 26 91 93 89 48 -2 60 -6 67 -22z"/>
<path d="M5496 7725 c-38 -20 -96 -80 -96 -98 0 -8 7 -18 16 -21 49 -19 204
46 204 86 0 45 -67 62 -124 33z"/>
<path d="M4445 7143 c-801 -67 -1486 -469 -1932 -1133 -430 -641 -535 -1480
-277 -2221 52 -151 122 -303 203 -442 391 -668 1052 -1114 1831 -1234 145 -22
548 -25 685 -4 580 86 1060 325 1460 725 216 216 358 417 492 692 118 244 198
515 235 794 16 124 16 479 0 600 -67 505 -275 973 -600 1351 -429 497 -1033
807 -1692 868 -107 10 -311 12 -405 4z m488 -139 c506 -60 990 -295 1371 -664
365 -354 605 -807 697 -1320 27 -146 37 -487 20 -652 -48 -457 -228 -894 -518
-1253 -92 -114 -265 -288 -368 -371 -263 -210 -597 -376 -925 -459 -834 -210
-1717 45 -2317 669 -435 453 -673 1041 -673 1666 0 1034 663 1951 1648 2281
339 114 689 148 1065 103z"/>
<path d="M3478 6529 c-10 -5 -18 -22 -18 -36 0 -21 -2 -24 -15 -13 -13 11 -15
2 -15 -69 0 -44 -4 -81 -9 -81 -5 0 -13 41 -17 90 -3 50 -11 90 -16 90 -5 0
-7 -12 -4 -27 3 -16 6 -55 8 -88 l2 -60 -55 -5 c-68 -7 -92 -20 -113 -64 -21
-45 -20 -101 3 -151 23 -48 154 -180 170 -171 7 5 11 53 11 137 0 79 4 129 10
129 6 0 10 -49 10 -128 0 -121 1 -130 23 -150 13 -12 26 -22 30 -22 4 0 7 63
7 139 0 78 4 142 9 146 6 3 11 -19 13 -52 l3 -58 29 53 c16 28 31 51 32 49 2
-1 -8 -33 -22 -71 -30 -83 -45 -220 -34 -307 14 -111 48 -154 61 -76 3 20 14
46 24 57 15 16 16 22 5 35 -12 14 -16 10 -33 -30 -11 -25 -23 -45 -28 -45 -4
0 4 27 18 60 15 33 29 60 32 60 3 -1 29 -37 56 -81 61 -97 228 -269 261 -269
13 0 31 11 41 25 10 14 30 42 46 62 31 40 39 83 9 47 -9 -11 -24 -31 -33 -45
-31 -45 -30 -11 0 39 41 65 40 81 0 19 -31 -47 -52 -59 -29 -17 6 12 9 24 6
27 -3 3 -8 -2 -12 -11 -3 -9 -10 -16 -15 -16 -5 0 -2 14 7 31 15 29 15 31 0
26 -23 -9 -21 -3 18 51 42 57 36 85 -10 50 l-29 -23 18 28 c9 15 13 27 8 27
-5 0 -13 12 -18 27 l-9 26 -38 -52 c-44 -59 -58 -62 -24 -5 l22 39 -22 -19
c-25 -22 -29 -10 -7 20 21 28 18 40 -5 19 -25 -22 -26 -13 -2 22 9 15 11 24 5
20 -9 -6 -13 0 -13 22 0 39 -6 39 -47 -1 -28 -27 -35 -30 -43 -18 -5 8 -10 31
-10 50 0 20 -7 45 -15 57 -13 18 -13 22 0 33 12 10 23 5 62 -27 75 -61 83 -66
83 -57 0 5 -50 48 -112 94 l-112 85 39 3 c22 1 110 -1 195 -5 l155 -8 6 -35
c6 -34 7 -33 13 22 0 6 16 12 34 12 l32 1 0 -99 c0 -126 18 -118 22 9 3 76 6
90 21 93 16 3 17 -10 17 -162 0 -104 4 -166 10 -166 6 0 10 62 10 166 0 128 3
165 13 162 9 -4 13 -59 17 -214 l6 -209 2 213 c1 133 6 212 12 212 6 0 10 -82
10 -225 0 -124 3 -225 8 -225 4 0 6 101 5 225 -1 135 2 225 8 225 5 0 9 -103
9 -255 0 -182 -3 -255 -11 -255 -8 0 -8 -5 1 -15 7 -8 10 -26 8 -40 -3 -14 -1
-25 4 -25 5 0 1 -14 -8 -31 -15 -30 -15 -31 1 -26 26 11 -20 -64 -68 -110 -40
-38 -41 -33 -4 20 10 16 17 31 14 33 -3 3 -11 -4 -17 -16 -6 -12 -14 -20 -16
-17 -3 3 7 29 21 57 20 40 23 51 11 46 -52 -20 -49 -21 -36 5 12 22 10 22 -19
-5 -37 -36 -40 -27 -6 18 37 49 30 55 -11 10 -39 -43 -36 -32 8 33 40 59 35
65 -7 9 -20 -25 -40 -46 -46 -46 -11 0 -7 9 23 52 28 41 21 46 -12 8 -34 -41
-39 -32 -9 17 15 24 18 38 11 45 -7 7 -27 -15 -65 -69 -68 -96 -90 -117 -117
-110 -25 6 -25 6 2 -39 l22 -37 -48 6 c-99 14 -128 29 -204 103 -74 72 -163
131 -182 119 -5 -3 -10 -21 -10 -38 0 -18 -5 -39 -10 -47 -7 -10 -10 36 -11
140 -1 98 -4 140 -9 115 l-7 -40 -2 48 c0 29 -5 46 -11 42 -5 -3 -10 2 -10 13
0 10 -6 19 -14 19 -9 0 -17 -19 -22 -56 l-8 -56 -7 60 -6 60 -1 -52 c-2 -61 0
-60 -99 -37 -38 9 -90 14 -118 11 -43 -4 -54 -10 -85 -45 -41 -45 -60 -98 -60
-163 0 -41 4 -47 79 -118 43 -42 91 -92 105 -112 l27 -37 -31 -48 c-41 -67
-58 -149 -41 -204 14 -49 72 -108 154 -160 55 -34 56 -36 72 -105 17 -78 190
-438 271 -565 80 -126 214 -300 289 -375 85 -85 191 -158 287 -196 87 -36 117
-54 145 -88 23 -29 163 -327 163 -348 0 -7 -6 -22 -12 -33 -16 -25 -1 -54 30
-58 28 -4 225 74 247 99 10 11 52 38 93 61 124 68 458 407 537 543 9 17 -48
-36 -127 -117 -132 -136 -144 -146 -162 -133 -19 15 -18 23 11 65 15 22 14 22
-15 -4 -25 -23 -35 -27 -44 -18 -9 9 -4 22 22 54 l33 43 -50 -48 c-59 -57 -79
-48 -38 16 l28 42 -26 -24 c-23 -20 -27 -22 -33 -8 -3 8 0 26 7 38 12 23 12
23 -15 6 l-26 -17 0 29 c0 24 -4 29 -16 24 -13 -5 -14 0 -8 32 5 31 4 37 -7
31 -8 -4 9 13 36 39 l50 46 -53 -26 c-30 -15 -56 -25 -58 -23 -2 2 60 57 136
123 77 65 139 120 137 121 -1 2 -56 -24 -121 -57 -65 -34 -119 -59 -122 -57
-2 3 38 32 89 65 61 40 111 83 147 126 30 36 58 66 61 66 3 1 13 -29 22 -66
18 -75 102 -251 141 -298 23 -27 25 -28 26 -9 0 11 -9 29 -20 39 -26 24 -93
154 -121 236 -24 72 -30 192 -11 249 12 37 62 428 69 547 6 87 -8 134 -71 238
-51 83 -95 182 -171 375 -29 75 -71 164 -94 199 -38 59 -45 80 -54 156 -3 22
-4 19 -6 -12 -1 -49 -11 -54 -31 -18 -7 14 -15 23 -17 21 -7 -7 25 -63 67
-119 58 -76 96 -152 119 -239 12 -45 62 -160 119 -275 54 -109 107 -229 117
-266 l18 -68 -22 -29 c-12 -17 -17 -30 -12 -30 21 0 -21 -350 -47 -390 -9 -14
-15 -34 -14 -46 4 -26 -46 -87 -64 -80 -8 3 -19 -4 -24 -15 -12 -21 -67 -59
-87 -59 -7 0 -10 7 -7 15 7 17 -12 20 -48 6 -13 -4 -36 -11 -51 -15 -26 -6
-27 -5 -17 14 14 26 2 26 -26 -1 -30 -28 -61 -19 -42 11 7 11 21 20 30 20 24
0 23 32 -2 55 -26 23 -25 33 3 63 l22 25 -32 -17 c-48 -24 -43 0 9 48 l43 38
-38 -21 c-21 -12 -45 -21 -53 -21 -24 0 -15 17 16 30 43 18 50 34 11 25 -17
-4 -31 -2 -31 3 0 12 34 42 47 42 6 0 16 7 23 15 16 19 7 19 -30 0 -53 -27
-40 1 16 34 57 34 69 54 15 27 -16 -9 -35 -16 -42 -16 -19 0 11 29 52 51 55
28 58 42 4 18 -69 -31 -66 -16 4 22 74 39 75 51 1 14 -66 -34 -88 -27 -32 10
42 28 52 46 14 26 -36 -19 -42 -13 -25 26 11 28 12 42 4 55 -39 62 24 138 93
112 15 -6 15 -8 -1 -19 -21 -16 -25 -13 80 -43 37 -11 67 -16 67 -12 0 5 -10
12 -21 15 -17 6 -19 9 -8 16 8 5 26 9 41 9 15 0 30 5 33 10 4 6 -15 10 -49 10
-74 0 -80 17 -9 25 80 9 87 13 25 14 -33 1 -51 5 -47 11 3 6 15 10 26 10 27 0
24 20 -3 21 -21 1 -20 2 7 14 29 14 29 14 5 15 -25 1 -24 1 10 30 41 35 35 38
-23 9 l-42 -20 35 31 c34 29 34 30 7 20 -44 -15 -45 -12 -7 20 36 31 24 40
-20 15 -44 -25 -45 -16 -2 16 52 38 48 50 -5 19 l-38 -22 45 41 c46 42 44 58
-3 21 -35 -28 -45 -25 -18 4 13 14 20 30 16 36 -4 6 1 21 12 32 18 21 18 21
-5 9 -13 -7 -25 -11 -27 -9 -14 17 -35 73 -31 84 4 10 -2 14 -19 14 -16 0 -25
6 -25 15 0 8 -5 15 -11 15 -6 0 -9 7 -5 15 3 10 -1 15 -12 15 -12 0 -7 9 18
30 37 31 32 39 -10 15 -42 -24 -46 -17 -10 15 37 31 31 41 -8 14 -38 -26 -35
-9 3 25 40 35 29 42 -17 10 -16 -12 -31 -19 -34 -16 -3 2 14 19 38 36 45 33
37 42 -13 15 -42 -21 -47 -11 -7 15 34 21 23 30 -14 10 -34 -18 -31 -3 4 21
25 16 27 20 11 16 -75 -20 -71 -20 -43 4 22 19 22 21 5 17 -11 -3 -28 -8 -37
-12 -32 -13 -19 10 20 33 34 21 25 24 -23 7 -16 -6 -15 -3 5 14 22 18 23 21 6
21 -20 0 -20 0 0 16 18 15 18 15 -8 9 -32 -6 -36 2 -10 21 16 12 15 13 -5 14
-13 0 -23 5 -23 10 0 6 7 10 15 10 8 0 15 4 15 10 0 5 -6 9 -12 7 -9 -1 -13
13 -14 46 0 26 -4 50 -7 54 -4 3 -1 13 6 21 10 13 9 15 -6 9 -36 -13 -39 5 -6
39 18 19 30 36 27 40 -13 12 -68 -8 -95 -36 -60 -60 -57 -37 -50 -365 6 -279
5 -307 -12 -357 -26 -76 -33 -144 -21 -208 23 -123 24 -136 4 -144 -40 -17
-1155 -52 -1180 -38 -13 7 -9 14 18 38 52 46 68 74 67 119 -1 40 -1 40 -10 9
-15 -54 -51 -78 -125 -82 l-65 -4 12 26 c10 21 10 29 0 39 -10 9 -15 8 -25 -5
-7 -10 -18 -18 -23 -18 -13 0 -48 40 -58 65 -5 14 -9 16 -12 7 -3 -8 4 -27 16
-43 12 -16 17 -29 12 -29 -18 0 -41 44 -41 79 0 36 31 95 55 105 9 3 12 12 8
22 -5 15 -1 16 31 10 21 -4 44 -10 52 -13 10 -4 7 12 -11 61 -23 60 -25 81
-25 218 0 83 3 148 8 144 10 -11 30 -180 21 -186 -11 -8 8 -155 25 -187 20
-39 64 -79 106 -97 64 -26 74 -46 67 -131 -5 -66 -4 -74 10 -66 9 4 24 6 33 4
10 -3 21 0 24 6 4 6 39 11 81 11 64 0 77 -3 96 -22 17 -18 21 -19 16 -5 -4 9
-2 17 3 17 4 0 11 -13 15 -30 10 -45 28 -49 19 -5 -5 27 -4 36 5 31 6 -4 11
-16 11 -26 0 -28 20 -35 21 -8 l0 23 9 -22 c13 -33 21 -28 13 9 -4 22 -3 29 5
24 7 -4 12 -18 12 -32 0 -14 4 -23 8 -20 5 3 6 20 4 38 -4 29 -3 31 11 20 10
-9 17 -10 22 -2 4 6 97 10 271 10 256 0 264 -1 264 -20 0 -19 -10 -24 -70 -33
-14 -3 12 -5 57 -6 45 0 93 3 107 9 38 14 34 45 -6 57 -18 5 -32 15 -30 22 1
8 -7 9 -25 5 -28 -7 -28 -7 -10 14 18 20 18 20 -22 15 -23 -3 -41 -3 -41 1 0
3 23 17 51 32 28 14 49 28 46 30 -3 3 -19 -2 -37 -11 -49 -25 -47 -11 3 18 34
20 50 39 68 79 l24 53 0 450 c0 260 -3 455 -9 463 -5 8 -5 22 3 38 15 34 14
66 -4 90 -15 19 -15 19 -30 0 -10 -13 -11 -24 -5 -37 6 -10 10 -149 10 -329
l0 -311 -22 6 c-56 17 -56 17 -63 327 -6 270 -6 287 12 297 10 6 12 11 6 11
-9 0 -13 16 -13 47 0 25 -2 44 -4 42 -3 -3 -12 -56 -16 -88 0 -2 -7 2 -14 9
-10 8 -33 9 -73 4 -85 -10 -112 -26 -33 -19 60 6 63 5 45 -9 -17 -13 -18 -15
-3 -16 9 0 19 -6 21 -12 4 -10 6 -10 6 0 1 6 5 12 9 12 5 0 7 -13 4 -30 l-4
-30 -117 8 c-152 9 -617 9 -753 -1 l-108 -8 -2 53 -1 53 -4 -45 c-3 -25 -8
-49 -14 -54 -5 -6 -9 34 -9 107 0 122 -3 129 -42 106z m552 -279 c0 -71 29
-65 -240 -49 -145 8 -193 15 -222 30 -22 11 -40 14 -43 9 -3 -6 -18 -10 -33
-10 -28 0 -60 15 -52 24 3 2 48 12 100 21 80 15 219 25 448 33 l42 2 0 -60z
m-676 -495 c-15 -22 -15 -26 0 -40 36 -36 1 -154 -47 -163 -29 -6 -49 18 -43
50 7 37 -10 45 -27 12 l-14 -26 -22 28 c-27 34 -24 95 6 126 18 17 140 50 155
41 4 -2 1 -15 -8 -28z m1469 -388 c51 -116 56 -141 31 -151 -65 -25 -134 12
-134 71 0 45 41 206 50 196 3 -4 27 -57 53 -116z m-952 -448 c34 -15 48 -26
45 -36 -4 -10 -1 -11 14 -3 29 15 37 12 49 -18 17 -41 5 -76 -39 -115 -48 -44
-95 -53 -165 -32 -54 15 -265 114 -292 136 -28 24 -3 19 54 -10 33 -16 104
-48 159 -71 85 -36 106 -41 151 -37 28 3 61 10 72 17 25 13 27 42 5 61 -13 11
-17 10 -25 -4 -6 -9 -15 -17 -20 -17 -6 0 -7 5 -3 11 3 6 -5 3 -19 -6 -45 -29
-124 0 -153 56 -7 15 -14 30 -14 33 0 11 87 56 108 56 13 0 46 -10 73 -21z
m329 -309 c14 -33 20 -36 38 -18 18 18 27 1 14 -27 -7 -15 -8 -27 -2 -30 13
-8 12 -36 0 -55 -9 -13 -11 -13 -19 -1 -6 10 -9 3 -8 -22 0 -21 2 -37 3 -37 1
0 12 16 24 35 12 19 26 33 31 30 11 -7 -27 -85 -41 -85 -28 0 -2 -91 37 -132
l26 -27 19 24 19 24 70 -46 c38 -25 68 -48 66 -49 -2 -2 -27 5 -56 16 -29 11
-49 15 -45 9 12 -19 86 -47 147 -54 61 -8 88 -25 40 -26 l-28 0 25 -10 c34
-14 110 -4 159 20 47 25 107 27 153 7 18 -8 50 -18 71 -21 59 -9 45 -53 -15
-46 -22 2 -27 -1 -22 -13 4 -10 0 -18 -10 -22 -14 -5 -14 -9 -4 -22 11 -14 9
-15 -22 -8 -19 3 -37 11 -38 16 -2 6 -8 7 -14 4 -5 -3 -2 -14 8 -25 16 -18 16
-19 -17 -19 -19 0 -40 5 -46 11 -8 8 -16 4 -28 -15 -21 -31 -33 -33 -43 -6 -7
19 -9 19 -45 -11 -33 -27 -53 -29 -26 -2 11 11 5 33 -9 33 -4 0 -16 -13 -25
-30 -21 -35 -41 -40 -32 -7 6 21 5 21 -9 3 -29 -36 -36 -6 -11 47 l26 52 -46
-48 c-50 -55 -60 -43 -15 17 41 55 38 64 -6 16 -49 -54 -62 -50 -24 8 l31 47
-40 -44 c-48 -51 -66 -49 -26 4 41 53 24 53 -19 0 -56 -67 -79 -58 -31 13 34
50 31 65 -4 22 -33 -39 -53 -35 -27 6 10 14 14 29 11 32 -4 4 -14 -3 -22 -15
-9 -13 -24 -23 -34 -23 -23 0 -24 10 -4 36 25 33 16 39 -15 9 -36 -35 -49 -29
-19 9 28 35 19 43 -11 11 -39 -41 -80 -24 -43 18 36 40 40 54 10 34 -31 -20
-35 -9 -11 31 15 26 15 26 -10 -3 l-26 -30 -20 20 -20 21 31 37 c32 39 32 45
-1 25 -26 -17 -35 -4 -16 24 22 31 20 41 -4 28 -28 -15 -38 12 -16 45 9 14 12
25 7 25 -5 0 -13 -5 -16 -11 -4 -6 -13 -8 -21 -5 -9 3 -17 -2 -20 -12 -3 -9
-8 -24 -11 -32 -3 -11 -9 -9 -23 10 -26 33 -25 36 9 43 23 5 32 14 41 44 15
45 72 153 81 153 4 0 12 -13 19 -30z m835 -932 l107 -121 -27 -14 c-15 -8 -34
-12 -42 -9 -10 4 -13 2 -10 -8 3 -7 -8 -26 -24 -42 -34 -33 -23 -41 -126 91
-72 94 -88 121 -74 130 5 2 38 -35 74 -83 35 -48 74 -96 86 -106 21 -19 21
-19 -1 27 -13 26 -29 47 -35 47 -7 0 -19 13 -27 28 -8 16 -22 35 -31 42 -24
20 -57 88 -53 111 2 16 13 7 47 -40 54 -75 75 -81 26 -8 -32 48 -34 53 -18 65
9 6 18 12 19 12 1 0 50 -55 109 -122z"/>
<path d="M5685 3800 c17 -7 15 -9 -12 -9 -45 -1 -48 -15 -12 -49 l32 -30 -22
-64 c-32 -89 -152 -315 -227 -430 -96 -144 -306 -327 -462 -401 -113 -53 -228
-47 -247 13 -3 11 -10 20 -14 20 -7 0 -32 -58 -67 -154 -7 -18 -3 -19 54 -12
85 10 186 39 335 97 146 58 223 110 299 203 27 34 67 82 89 108 21 26 39 51
39 57 0 15 208 372 232 397 27 30 51 130 44 182 -8 62 -22 82 -54 81 -24 0
-25 -1 -7 -9z"/>
</g>
</svg>
